 <svg  version="1.0" xmlns="http://www.w3.org/2000/svg"  width="300.000000pt" height="300.000000pt" viewBox="0 0 300.000000 300.000000"  preserveAspectRatio="xMidYMid meet">  <g transform="translate(0.000000,300.000000) scale(0.100000,-0.100000)" fill="#ffffff" stroke="none"> <path d="M1395 2490 c-3 -10 -26 -37 -50 -58 -50 -44 -51 -39 28 -135 l39 -46 -7 -78 c-4 -45 -16 -97 -28 -123 l-21 -45 -6 78 -5 78 -40 -40 c-45 -47 -66 -50 -130 -19 -34 17 -45 28 -45 45 0 52 -68 85 -119 59 -54 -28 -55 -107 -1 -130 24 -10 40 -33 81 -117 28 -57 52 -105 54 -107 5 -5 317 83 445 126 130 44 119 30 140 182 10 72 15 87 33 95 12 6 26 22 31 37 8 23 6 32 -14 53 -27 29 -56 32 -88 9 -18 -12 -22 -24 -20 -56 2 -36 -3 -45 -44 -84 -73 -69 -107 -57 -167 63 -28 56 -27 62 14 79 43 17 43 25 6 47 -16 9 -39 37 -51 62 -12 25 -23 45 -25 45 -2 0 -6 -9 -10 -20z"/> <path d="M1716 1961 c-22 -25 -128 -62 -366 -131 -102 -30 -187 -55 -189 -57 -3 -2 2 -25 11 -53 13 -41 14 -50 2 -54 -35 -14 5 -120 50 -132 31 -8 76 -113 76 -180 0 -41 5 -55 25 -74 25 -23 26 -23 60 -7 44 21 85 22 132 2 34 -15 38 -14 60 7 18 17 23 32 23 72 0 68 45 172 77 181 25 6 63 70 63 105 0 11 -8 24 -18 28 -18 7 -18 10 4 97 35 140 30 240 -10 196z"/> <path d="M1245 1387 c-16 -5 -60 -28 -97 -49 -37 -22 -93 -50 -123 -63 l-56 -22 77 -12 c125 -18 234 -78 234 -127 0 -14 7 -39 16 -56 14 -27 10 -25 -48 23 -35 29 -87 63 -116 77 l-53 24 -112 -42 c-177 -65 -167 -60 -167 -88 0 -13 5 -76 12 -139 l12 -114 60 -43 c86 -61 209 -130 301 -171 l80 -35 8 41 c6 30 17 45 43 62 39 25 43 42 13 50 -27 7 -21 41 7 45 15 2 24 13 28 34 10 53 7 66 -16 70 -34 5 -32 50 2 58 34 8 40 47 8 52 -32 4 -31 40 2 48 21 5 22 7 8 13 -25 9 -58 67 -58 101 0 18 -16 50 -45 88 -25 33 -45 67 -45 75 0 8 14 35 31 59 17 25 29 47 27 48 -1 2 -16 -1 -33 -7z m-81 -463 c19 -18 20 -28 6 -55 -8 -15 -7 -19 5 -19 8 0 15 -4 15 -10 0 -5 -7 -10 -16 -10 -12 0 -14 -5 -9 -17 18 -43 12 -58 -28 -61 -42 -4 -59 17 -39 49 16 24 15 29 -3 29 -8 0 -15 5 -15 10 0 6 5 10 10 10 7 0 8 13 5 34 -5 27 -3 36 12 45 25 15 39 14 57 -5z"/> <path d="M1620 1394 c0 -3 14 -25 31 -49 38 -53 35 -78 -16 -134 -27 -30 -35 -47 -35 -77 0 -42 -30 -101 -56 -111 -12 -4 -11 -8 8 -17 29 -15 30 -40 1 -44 -30 -4 -33 -52 -4 -52 24 0 45 -25 37 -45 -3 -8 -17 -15 -31 -15 -24 0 -26 -2 -20 -37 10 -57 12 -61 37 -65 31 -4 32 -42 1 -46 -32 -5 -29 -14 17 -51 33 -26 40 -38 40 -67 0 -32 2 -35 23 -28 61 18 234 109 328 171 l106 71 13 136 c8 82 9 140 4 146 -8 7 -106 43 -250 92 -26 9 -39 6 -87 -16 -31 -15 -79 -48 -108 -74 -33 -30 -50 -40 -45 -27 4 11 10 37 13 57 9 62 91 108 233 129 78 12 83 14 55 23 -16 6 -85 38 -152 73 -116 60 -143 71 -143 57z m180 -469 c7 -9 10 -27 7 -44 -4 -19 -2 -31 6 -35 9 -3 8 -7 -2 -15 -12 -8 -13 -14 -3 -36 16 -36 8 -45 -39 -45 -42 0 -62 21 -40 43 16 16 14 37 -4 37 -8 0 -15 5 -15 10 0 6 7 10 15 10 11 0 13 8 9 30 -7 34 9 60 36 60 10 0 23 -7 30 -15z"/> </g> </svg> 