 <svg  version="1.0" xmlns="http://www.w3.org/2000/svg"  width="300.000000pt" height="300.000000pt" viewBox="0 0 300.000000 300.000000"  preserveAspectRatio="xMidYMid meet">  <g transform="translate(0.000000,300.000000) scale(0.100000,-0.100000)" fill="#ffffff" stroke="none"> <path d="M1415 2815 c-14 -25 -48 -62 -75 -82 -47 -35 -48 -37 -35 -62 7 -14 41 -59 76 -100 l62 -73 -6 -112 c-6 -124 -15 -163 -52 -221 l-26 -40 3 125 3 125 -47 -56 c-58 -70 -94 -87 -148 -69 -82 27 -113 52 -124 100 -12 49 -59 90 -103 90 -68 0 -123 -53 -123 -119 0 -36 40 -86 76 -95 21 -6 37 -32 99 -161 l73 -154 124 33 c167 45 378 109 545 165 l138 46 23 160 c14 100 27 162 34 164 7 2 25 17 40 32 73 72 -17 183 -110 135 -37 -19 -59 -74 -42 -106 13 -25 -5 -55 -73 -117 -52 -48 -97 -62 -131 -40 -23 16 -92 125 -116 185 -16 40 -6 53 55 77 25 9 45 20 45 24 0 3 -17 15 -37 26 -42 23 -89 83 -98 125 -10 45 -21 44 -50 -5z"/> <path d="M1869 2066 c-27 -26 -68 -44 -175 -79 -131 -43 -517 -158 -576 -173 -33 -7 -34 -20 -8 -94 24 -68 24 -67 0 -73 -51 -13 5 -162 69 -183 28 -9 38 -22 72 -94 35 -73 39 -91 39 -158 0 -74 1 -77 36 -113 l36 -37 46 24 c59 32 138 33 199 2 l44 -22 34 40 c32 37 35 43 35 111 0 61 5 82 35 144 19 41 35 79 35 86 0 7 11 13 24 13 31 0 71 42 92 95 20 54 13 92 -21 101 -21 5 -23 9 -14 31 9 25 42 163 61 256 9 48 -5 157 -20 157 -4 0 -23 -16 -43 -34z"/> <path d="M1198 1246 c-31 -13 -93 -45 -138 -71 -45 -26 -116 -63 -158 -81 -42 -18 -70 -35 -62 -37 8 -3 58 -12 110 -20 117 -18 190 -45 254 -94 44 -34 51 -44 61 -94 6 -31 18 -68 28 -82 30 -46 19 -40 -55 28 -80 73 -131 106 -216 141 -53 21 -58 22 -92 7 -19 -8 -102 -39 -185 -68 -82 -30 -155 -62 -162 -71 -7 -10 -11 -33 -8 -53 3 -20 12 -103 21 -185 8 -83 17 -153 20 -157 11 -18 252 -174 348 -225 99 -52 260 -124 278 -124 4 0 8 11 8 25 0 45 27 93 68 120 43 28 61 55 38 55 -8 0 -24 8 -36 18 -19 16 -21 21 -11 41 7 12 25 24 41 27 23 5 29 13 34 43 4 20 9 48 12 63 5 24 2 28 -16 28 -34 0 -60 19 -60 43 0 31 18 47 52 47 26 0 28 3 28 41 0 34 -3 39 -18 35 -10 -4 -27 0 -38 8 -26 20 -8 50 34 54 l31 3 -36 32 c-43 38 -72 98 -73 150 0 31 -9 49 -45 90 -24 28 -54 69 -66 92 l-22 42 45 64 c73 104 73 101 -14 65z m-98 -656 c24 -24 25 -48 5 -77 -13 -19 -13 -21 5 -26 26 -7 26 -27 0 -34 -18 -5 -18 -7 -5 -34 8 -15 15 -37 15 -49 0 -18 -6 -20 -65 -20 -61 0 -65 1 -65 23 0 13 7 32 15 43 20 26 19 34 -5 34 -13 0 -20 7 -20 20 0 14 7 20 21 20 19 0 19 1 5 22 -9 12 -16 30 -16 40 0 26 36 58 65 58 14 0 34 -9 45 -20z"/> <path d="M1747 1258 c4 -7 27 -42 52 -77 l44 -63 -20 -42 c-11 -22 -39 -62 -62 -88 -35 -40 -41 -52 -41 -92 0 -61 -19 -104 -65 -149 l-37 -36 28 -3 c38 -4 55 -35 30 -54 -11 -8 -31 -14 -44 -14 -20 0 -23 -4 -18 -22 3 -13 6 -29 6 -35 0 -7 9 -13 21 -13 34 0 59 -19 59 -45 0 -26 -25 -45 -59 -45 -24 0 -24 0 -10 -73 10 -50 15 -57 35 -57 14 0 30 -10 40 -25 16 -24 16 -27 -1 -45 -10 -11 -26 -20 -36 -20 -28 0 -13 -25 33 -55 41 -27 68 -75 68 -120 0 -14 4 -25 8 -25 28 0 286 121 375 176 87 54 237 157 248 171 7 7 21 97 32 199 18 174 19 186 2 204 -9 10 -67 35 -128 56 -62 20 -145 49 -185 65 l-72 29 -58 -23 c-74 -30 -123 -62 -205 -131 -60 -52 -64 -54 -50 -24 9 17 18 53 21 79 4 42 9 51 48 79 73 52 144 79 268 99 65 11 121 22 123 25 2 2 -24 14 -59 25 -35 12 -92 38 -128 58 -206 114 -286 148 -263 111z m255 -665 c20 -18 23 -54 8 -83 -8 -14 -5 -19 11 -23 26 -7 20 -30 -9 -37 l-22 -5 20 -30 c36 -54 29 -65 -44 -65 -36 0 -68 5 -71 10 -4 6 2 28 13 50 l19 39 -21 3 c-11 2 -22 11 -24 21 -3 13 3 17 24 17 26 0 26 1 11 18 -52 57 28 137 85 85z"/> </g> </svg> 