<svg version="1.2" xmlns="http://www.w3.org/2000/svg" viewBox="0 0 24 24" width="24" height="24"><style>.a{fill:none;stroke:#000;stroke-linecap:round;stroke-linejoin:round;stroke-width:2}</style><path class="a" d="m16.2 7.8c2.4 2.3 2.4 6.1 0 8.4"/><path class="a" d="m7.8 16.2c-2.4-2.3-2.4-6.1 0-8.4"/><path class="a" d="m4.9 19.1c-3.9-3.9-3.9-10.3 0-14.2"/><path class="a" d="m19.1 4.9c3.9 3.9 3.9 10.3 0 14.2"/><path fill-rule="evenodd" class="a" d="m12 14c-1.1 0-2-0.9-2-2 0-1.1 0.9-2 2-2 1.1 0 2 0.9 2 2 0 1.1-0.9 2-2 2z"/></svg>