<svg version="1.2" xmlns="http://www.w3.org/2000/svg" viewBox="0 0 20 20" width="20" height="20"><style></style><path  d="m4.3 7.3c-0.3 0.1-0.7 0.3-0.7 0.7 0 0.3 0.3 0.7 0.7 0.7q0.3 0 0.6-0.1-0.3-0.7-0.4-1.4c0 0-0.1 0.1-0.2 0.1zm7.9 6.1c-0.2-0.5-0.2-0.9-0.2-0.9-0.1-0.3-0.3-0.4-0.6-0.4 0 0-0.7 0.3-1.4 0.3-0.7 0-1.4-0.3-1.4-0.3-0.3 0-0.5 0.1-0.5 0.4 0 0-0.1 0.4-0.3 0.9-0.1 0.3-0.2 0.4-0.2 0.4-0.1 0.3 0 0.5 0.2 0.5h4.4c0.2 0 0.3-0.2 0.2-0.5 0 0-0.1 0-0.2-0.4zm1.9-13.4h-8.2c-0.3 0-0.6 0.3-0.6 0.6v5.1c0 1.6 0.5 3 1.4 4.1 0.8 1 2 1.6 3.3 1.6 1.3 0 2.5-0.6 3.3-1.6 0.9-1.1 1.4-2.5 1.4-4.1v-5.1c0-0.3-0.3-0.6-0.6-0.6zm-9.7 5h-1.2c-0.9 0-1.6-0.7-1.6-1.6 0-0.8 0.7-1.5 1.6-1.5 0.5 0 0.9 0.2 1.2 0.5v-1.7q-0.6-0.2-1.2-0.2c-1.6 0-3 1.3-3 2.9 0 1.7 1.4 3 3 3h1.2q0-0.4 0-0.7zm11.2 1.4h1.2c1.6 0 3-1.3 3-3 0-1.6-1.4-2.9-3-2.9q-0.6 0-1.2 0.2v1.7c0.3-0.4 0.7-0.6 1.2-0.6 0.9 0 1.6 0.7 1.6 1.6 0 0.9-0.7 1.6-1.6 1.6h-1.2v0.7q0 0.3 0 0.7zm-12 9.8c0-0.5 0.5-1 1-1h10.8c0.5 0 1 0.5 1 1v2.8c0 0.5-0.5 1-1 1h-10.8c-0.5 0-1-0.5-1-1zm11.9-9q-0.1 0.7-0.4 1.3 0.3 0.1 0.6 0.1c0.4 0 0.7-0.3 0.7-0.7 0-0.3-0.3-0.6-0.7-0.7-0.1 0-0.2 0-0.2 0z"/></svg>