<svg version="1.2" xmlns="http://www.w3.org/2000/svg" viewBox="0 0 24 24" width="24" height="24"><style></style><path  d="m1.5 6.5c0-3 2.5-5.5 5.5-5.5 3 0 5.5 2.5 5.5 5.5 0 3-2.5 5.5-5.5 5.5-3 0-5.5-2.5-5.5-5.5zm13 0c0 1.5-0.4 2.9-1.2 4.1 1 0.9 2.3 1.4 3.7 1.4 3 0 5.5-2.5 5.5-5.5 0-3-2.5-5.5-5.5-5.5-1.4 0-2.7 0.5-3.7 1.4 0.8 1.2 1.2 2.6 1.2 4.1zm-14.5 11.5c0-2.2 1.8-4 4-4h6c2.2 0 4 1.8 4 4v4c0 0.6-0.4 1-1 1h-12c-0.6 0-1-0.4-1-1zm16 0v5h7c0.6 0 1-0.4 1-1v-4c0-2.2-1.8-4-4-4h-5.5c0.9 1.1 1.5 2.5 1.5 4z"/></svg>