<svg version="1.2" xmlns="http://www.w3.org/2000/svg" viewBox="0 0 24 24" width="24" height="24"><style>.a{fill:none}</style><path fill-rule="evenodd" d="m3.1 3.8q0.1-0.2 0.3-0.4 0.2-0.2 0.4-0.3 0.2-0.1 0.5-0.1h16.4q0.3 0 0.5 0.1 0.2 0.1 0.4 0.3 0.2 0.2 0.3 0.4 0.1 0.2 0.1 0.5v16.4q0 0.3-0.1 0.5-0.1 0.2-0.3 0.4-0.2 0.2-0.4 0.3-0.2 0.1-0.5 0.1h-16.4q-0.3 0-0.5-0.1-0.2-0.1-0.4-0.3-0.2-0.2-0.3-0.4-0.1-0.2-0.1-0.5v-16.4q0-0.3 0.1-0.5zm1.2 0.2q-0.1 0-0.1 0-0.1 0-0.1 0.1-0.1 0-0.1 0.1 0 0 0 0.1v16.4q0 0.1 0 0.1 0 0.1 0.1 0.1 0 0.1 0.1 0.1 0 0 0.1 0h16.4q0.1 0 0.1 0 0.1 0 0.1-0.1 0.1 0 0.1-0.1 0 0 0-0.1v-16.4q0-0.1 0-0.1 0-0.1-0.1-0.1 0-0.1-0.1-0.1 0 0-0.1 0z"/><path fill-rule="evenodd" class="a" d="m0 0h24v24h-24z"/></svg>